# Blender 4.2.3 LTS
# www.blender.org
mtllib casa2.mtl
o Circle
v 1.719685 2.062627 -0.168953
v 1.322803 2.062627 -0.120117
v 1.716064 2.021942 -0.198296
v 1.319183 2.021942 -0.149452
v 1.710209 2.037508 -0.245735
v 1.313370 2.037508 -0.196915
v 1.710209 2.087788 -0.245735
v 1.313370 2.087788 -0.196915
v 1.716064 2.103311 -0.198296
v 1.319183 2.103311 -0.149452
v 1.244713 1.986972 -0.240303
v 1.337326 1.986972 -0.251724
v 1.267925 1.986972 -0.051681
v 1.360542 1.986972 -0.063103
v 1.244713 2.707052 -0.240303
v 1.337326 2.707052 -0.251724
v 1.267925 2.707052 -0.051682
v 1.360542 2.707052 -0.063103
v 1.307755 2.578048 -0.202637
v 1.307755 2.677840 -0.202637
v 1.319935 2.578048 -0.103539
v 1.319935 2.677840 -0.103539
v -1.002514 2.578048 0.081612
v -1.002514 2.677840 0.081612
v -0.990330 2.578048 0.180748
v -0.990330 2.677840 0.180748
v 0.534443 2.644235 0.130051
v -0.724316 2.644235 0.284920
v 0.520828 2.450962 0.019264
v -0.737923 2.450962 0.174187
v 0.493553 2.450962 -0.202248
v -0.765202 2.450962 -0.047363
v 0.479939 2.644235 -0.312973
v -0.778816 2.644235 -0.158096
v 0.493553 2.837507 -0.202248
v -0.765202 2.837507 -0.047363
v 0.520828 2.837507 0.019264
v -0.737923 2.837507 0.174187
v 0.803074 3.233476 1.029159
v 0.529305 3.233476 -1.195725
v 1.068184 3.233476 0.996544
v 0.794418 3.233476 -1.228340
v 0.791958 3.341413 0.938866
v 0.540424 3.341414 -1.105438
v 1.057072 3.341413 0.906258
v 0.805534 3.341414 -1.138046
v -1.181561 3.233476 1.260597
v -1.452213 3.233476 -0.939140
v -0.843258 3.233476 1.219002
v -1.113918 3.233476 -0.980789
v -1.192513 3.341413 1.171364
v -1.441216 3.341414 -0.849876
v -0.854214 3.341413 1.129722
v -1.102921 3.341414 -0.891518
v -1.399738 3.149336 1.363022
v -1.688698 3.149336 -0.985588
v 1.308807 3.149336 1.029747
v 1.019848 3.149336 -1.318871
v -1.396851 3.265930 1.386558
v -1.691620 3.265930 -1.009125
v 1.311691 3.265930 1.053284
v 1.016922 3.265930 -1.342407
v -1.544235 4.395072 0.188713
v 1.164307 4.395072 -0.144554
v 1.164307 4.511666 -0.144554
v -1.544235 4.511666 0.188713
v 1.236576 3.614008 0.442596
v 1.236576 3.730602 0.442596
v -1.471966 3.730602 0.775864
v -1.471966 3.614008 0.775864
v -1.616463 3.614008 -0.398438
v 1.092079 3.614008 -0.731712
v 1.092079 3.730602 -0.731712
v -1.616463 3.730602 -0.398438
v -1.311848 3.167673 0.056770
v 0.968834 3.167673 -0.223824
v -1.286789 3.167673 0.260376
v 0.993885 3.167673 -0.020271
v -1.311848 3.296380 0.056770
v 0.968834 3.296380 -0.223824
v -1.286789 3.296380 0.260376
v 0.993885 3.296380 -0.020271
v 0.767616 0.160395 -0.246918
v 0.767616 4.252975 -0.246918
v 0.804272 0.160395 0.050911
v 0.804272 4.252975 0.050911
v 0.572182 0.160395 -0.222862
v 0.572182 4.252975 -0.222862
v 0.608833 0.160395 0.074967
v 0.608833 4.252975 0.074966
v -0.856319 0.160395 -0.047104
v -0.856319 4.252975 -0.047104
v -0.819664 0.160395 0.250725
v -0.819664 4.252975 0.250725
v -1.051750 0.160395 -0.023048
v -1.051750 4.252975 -0.023049
v -1.015148 0.160395 0.274750
v -1.015148 4.252975 0.274750
v 0.001923 0.000515 1.010368
v 0.482784 0.000515 0.815956
v 0.801964 0.000515 0.407196
v 0.874020 0.000515 -0.106430
v 0.679611 0.000515 -0.587257
v 0.270847 0.000515 -0.906471
v -0.242779 0.000515 -0.978531
v -0.723602 0.000515 -0.784118
v -1.042820 0.000515 -0.375305
v -1.114876 0.000515 0.138313
v -0.920464 0.000515 0.619133
v -0.511662 0.000515 0.938309
v 0.001923 1.566822 1.010368
v 0.482784 1.566822 0.815956
v 0.801964 1.566822 0.407196
v 0.874020 1.566822 -0.106430
v 0.679611 1.566822 -0.587250
v 0.270847 1.566822 -0.906471
v -0.242779 1.566822 -0.978531
v -0.723602 1.566822 -0.784119
v -1.042820 1.566822 -0.375305
v -1.114876 1.566822 0.138313
v -0.920464 1.566822 0.619133
v -0.511662 1.566822 0.938309
v -0.038540 1.566822 0.681511
v 0.283310 1.566822 0.551369
v 0.496918 1.566822 0.277779
v 0.545120 1.566822 -0.065971
v 0.415031 1.566822 -0.387772
v 0.141426 1.566822 -0.601417
v -0.202316 1.566822 -0.649620
v -0.524120 1.566822 -0.519539
v -0.737774 1.566822 -0.245933
v -0.786022 1.566822 0.097817
v -0.655884 1.566822 0.419663
v -0.382282 1.566822 0.633270
v -0.038540 0.160097 0.681511
v 0.283310 0.160097 0.551369
v 0.496918 0.160097 0.277779
v 0.545120 0.160097 -0.065971
v 0.415031 0.160097 -0.387771
v 0.141426 0.160097 -0.601417
v -0.202316 0.160097 -0.649620
v -0.524120 0.160097 -0.519539
v -0.737774 0.160097 -0.245933
v -0.786022 0.160097 0.097817
v -0.655884 0.160097 0.419663
v -0.382282 0.160097 0.633270
v -0.862095 1.412870 0.410973
v -0.902081 2.108087 0.086060
v -0.842838 1.487031 0.567299
v -0.882858 2.182249 0.242386
v -0.935070 1.412870 0.419983
v -0.975094 2.108087 0.095070
v -0.915855 1.487031 0.576271
v -0.955837 2.182249 0.251343
v 0.731880 1.414576 0.255692
v 0.690273 2.103439 -0.082260
v 0.750938 1.491680 0.410576
v 0.709332 2.180586 0.072624
v 0.658867 1.414576 0.264702
v 0.617298 2.103439 -0.073250
v 0.677914 1.491680 0.419548
v 0.636356 2.180586 0.081635
v 0.581882 1.412870 -0.360756
v 0.621861 2.108087 -0.035828
v 0.562672 1.487031 -0.517036
v 0.602654 2.182249 -0.192116
v 0.654903 1.412870 -0.369720
v 0.694885 2.108087 -0.044800
v 0.635685 1.487031 -0.526047
v 0.675667 2.182249 -0.201126
v -1.012051 1.414533 -0.205475
v -0.970482 2.103439 0.132492
v -1.031109 1.491680 -0.360359
v -0.989540 2.180586 -0.022392
v -0.939026 1.414533 -0.214439
v -0.897465 2.103439 0.123520
v -0.958084 1.491680 -0.369324
v -0.916523 2.180586 -0.031364
v -0.811321 1.980788 -0.052643
v -0.774666 1.980788 0.245186
v -0.970142 1.980788 0.269249
v -1.006798 1.980788 -0.028580
v -1.457306 4.228709 0.103348
v 1.010170 4.228709 -0.200249
v -1.439201 4.228709 0.250450
v 1.028271 4.228709 -0.053154
v -1.457306 4.357415 0.103348
v 1.010170 4.357415 -0.200249
v -1.439201 4.357415 0.250450
v 1.028271 4.357415 -0.053154
vn -0.0000 -1.0000 -0.0000
vn 0.1224 -0.0000 0.9925
vn -0.0000 1.0000 -0.0000
vn -0.1224 -0.0000 -0.9925
vn -0.9925 -0.0000 0.1221
vn 0.9925 -0.0000 -0.1222
vn 0.9925 -0.0000 -0.1220
vn 0.1221 -0.0000 0.9925
vn -0.9925 -0.0000 0.1220
vn -0.1221 -0.0000 -0.9925
vn 0.9925 -0.0000 -0.1221
vn 0.0934 0.6445 0.7589
vn -0.0933 0.6445 -0.7589
vn 0.9925 -0.0002 -0.1221
vn -0.9925 0.0002 0.1221
vn 0.0938 0.6401 0.7625
vn -0.0939 0.6402 -0.7625
vn -0.0754 -0.7864 -0.6131
vn 0.9925 0.0001 -0.1221
vn 0.0736 0.7980 0.5981
vn 0.1197 -0.1993 0.9726
vn -0.1197 -0.1993 -0.9726
vn -0.0974 0.6038 -0.7912
vn 0.0973 -0.6038 0.7912
vn -0.9925 -0.0000 0.1222
vn 0.0973 0.6038 0.7912
vn -0.0974 -0.6038 -0.7912
vn 0.0754 -0.7864 0.6131
vn 0.9925 0.0001 -0.1222
vn -0.0736 0.7980 -0.5981
vn -0.9925 -0.0001 0.1222
vn 0.1222 -0.0000 0.9925
vn -0.1222 -0.0000 -0.9925
vn 0.9922 -0.0249 -0.1221
vn -0.9922 0.0249 0.1220
vn 0.1104 0.4260 0.8979
vn -0.1110 -0.4260 -0.8979
vn 0.0521 -0.9047 0.4228
vn -0.0521 0.9047 -0.4229
vn 0.1095 0.4431 0.8898
vn -0.1098 -0.4431 -0.8897
vn 0.0541 -0.8965 0.4397
vn -0.0543 0.8964 -0.4399
vn -0.1103 0.4260 -0.8980
vn 0.1107 -0.4260 0.8979
vn -0.0521 -0.9047 -0.4229
vn 0.0520 0.9047 0.4228
vn -0.1092 0.4431 -0.8898
vn 0.1093 -0.4431 0.8898
vn -0.0545 -0.8965 -0.4397
vn 0.0541 0.8964 0.4399
vn -0.9923 -0.0199 0.1221
vn 0.9923 0.0199 -0.1221
vn 0.6894 -0.0000 0.7243
vn -0.4932 -0.0000 0.8699
vn -0.5610 -0.7640 0.3187
vn 0.6215 -0.7640 0.1733
vn -0.6705 -0.4720 -0.5724
vn 0.5118 -0.4719 -0.7179
vn -0.6705 0.4722 -0.5723
vn 0.5118 0.4722 -0.7177
vn -0.5611 0.7638 0.3191
vn 0.6216 0.7639 0.1735
vn 0.7022 -0.0000 0.7120
vn -0.5087 -0.0000 0.8609
vn -0.5570 -0.6863 0.4677
vn 0.6539 -0.6862 0.3187
vn -0.6538 -0.6862 -0.3188
vn 0.5570 -0.6862 -0.4678
vn -0.7022 -0.0000 -0.7120
vn 0.5087 -0.0000 -0.8610
vn -0.6538 0.6862 -0.3188
vn 0.5570 0.6862 -0.4678
vn -0.5570 0.6863 0.4677
vn 0.6539 0.6862 0.3187
vn 0.2957 -0.6532 -0.6970
vn 0.2957 0.6532 -0.6970
vn 0.6046 0.6532 -0.4558
vn 0.6046 -0.6532 -0.4558
vn -0.6046 -0.6532 0.4559
vn -0.6046 0.6532 0.4559
vn -0.7515 0.6532 0.0925
vn -0.7515 -0.6532 0.0925
vn 0.7515 -0.6532 -0.0925
vn 0.7515 0.6532 -0.0925
vn 0.6971 0.6532 0.2957
vn 0.6970 -0.6532 0.2957
vn -0.6970 -0.6532 -0.2957
vn -0.6971 0.6532 -0.2957
vn -0.4558 0.6532 -0.6046
vn -0.4558 -0.6532 -0.6046
vn 0.4558 -0.6532 0.6046
vn 0.4558 0.6532 0.6046
vn 0.0924 0.6532 0.7515
vn 0.0924 -0.6532 0.7515
vn -0.0925 -0.6532 -0.7515
vn -0.0925 0.6532 -0.7515
vn -0.2956 -0.6532 0.6970
vn -0.2957 0.6532 0.6971
vn -0.2490 0.7703 0.5871
vn -0.5092 0.7703 0.3839
vn 0.5092 0.7703 -0.3839
vn 0.6329 0.7703 -0.0779
vn -0.6330 0.7703 0.0779
vn -0.5871 0.7703 -0.2490
vn 0.5871 0.7703 0.2491
vn 0.3839 0.7703 0.5092
vn -0.3839 0.7703 -0.5092
vn -0.0779 0.7703 -0.6329
vn 0.0779 0.7702 0.6330
vn 0.2490 0.7702 -0.5871
vn -0.6971 0.6532 -0.2956
vn 0.6970 0.6532 0.2957
vn -0.4559 0.6532 -0.6046
vn -0.2956 0.6532 0.6971
vn 0.6046 0.6532 -0.4559
vn -0.6046 0.6532 0.4558
vn 0.7515 0.6532 -0.0924
vt 0.439200 0.698100
vt 0.439200 0.824400
vt 0.382100 0.824400
vt 0.382100 0.698100
vt 0.389800 0.830600
vt 0.389800 0.522800
vt 0.426500 0.522800
vt 0.426500 0.830600
vt 0.380400 0.330200
vt 0.293800 0.327100
vt 0.295200 0.284200
vt 0.381800 0.287400
vt 0.389500 0.532000
vt 0.389500 0.839800
vt 0.352800 0.839800
vt 0.352800 0.532000
vt 0.278000 0.532000
vt 0.278000 0.839800
vt 0.203100 0.532000
vt 0.203100 0.839800
vt 0.441800 0.229800
vt 0.441800 0.217700
vt 0.452900 0.217700
vt 0.452900 0.229800
vt 0.319300 0.415400
vt 0.319300 0.893700
vt 0.300400 0.893700
vt 0.300400 0.415400
vt 0.430700 0.229800
vt 0.430700 0.217700
vt 0.358900 0.393900
vt 0.358900 0.872200
vt 0.340000 0.872200
vt 0.340000 0.393900
vt 0.377800 0.393900
vt 0.377800 0.872200
vt 0.387300 0.388700
vt 0.406200 0.388700
vt 0.406200 0.867000
vt 0.387300 0.867000
vt 0.351400 0.684900
vt 0.289000 0.684900
vt 0.289000 0.163200
vt 0.351400 0.163200
vt 0.249300 0.542000
vt 0.232200 0.542000
vt 0.232200 0.187700
vt 0.249300 0.187700
vt 0.356300 0.599100
vt 0.307600 0.599100
vt 0.307600 0.191500
vt 0.356300 0.191500
vt 0.401900 0.163200
vt 0.427100 0.163200
vt 0.427100 0.685200
vt 0.401900 0.685200
vt 0.252800 0.848000
vt 0.252800 0.739000
vt 0.293400 0.739000
vt 0.293400 0.848000
vt 0.212200 0.848000
vt 0.212200 0.739000
vt 0.453200 0.625100
vt 0.486400 0.625100
vt 0.486400 0.871200
vt 0.453200 0.871200
vt 0.302300 0.886200
vt 0.268300 0.886200
vt 0.268300 0.420100
vt 0.302300 0.420100
vt 0.426600 0.782900
vt 0.366100 0.782900
vt 0.366100 0.334500
vt 0.426600 0.334500
vt 0.351800 0.410800
vt 0.385700 0.410800
vt 0.385700 0.876900
vt 0.351800 0.876900
vt 0.331600 0.294800
vt 0.331600 0.239800
vt 0.347700 0.239800
vt 0.347700 0.294800
vt 0.405000 0.197600
vt 0.405000 0.263200
vt 0.385900 0.263200
vt 0.385900 0.197600
vt 0.887400 0.206900
vt 0.613400 0.205700
vt 0.613600 0.140500
vt 0.887700 0.141700
vt 0.680100 0.230700
vt 0.679400 0.245200
vt 0.608800 0.183700
vt 0.609400 0.169200
vt 0.935500 0.180700
vt 0.578200 0.178100
vt 0.578800 0.096000
vt 0.936000 0.098600
vt 0.839200 0.213600
vt 0.838400 0.197800
vt 0.914400 0.130300
vt 0.915300 0.146100
vt 0.939400 0.143000
vt 0.592100 0.152300
vt 0.591800 0.136400
vt 0.939000 0.127100
vt 0.592500 0.125200
vt 0.940200 0.141400
vt 0.939500 0.157300
vt 0.591800 0.141100
vt 0.643000 0.221200
vt 0.643100 0.205400
vt 0.722100 0.311600
vt 0.722000 0.327400
vt 0.579000 0.228200
vt 0.912900 0.224900
vt 0.913800 0.327300
vt 0.579900 0.330700
vt 0.826400 0.237800
vt 0.825800 0.252300
vt 0.748300 0.346100
vt 0.748900 0.331600
vt 0.531500 0.177600
vt 0.756400 0.175400
vt 0.756900 0.265600
vt 0.532000 0.267800
vt 0.765500 0.323800
vt 0.764700 0.308100
vt 0.937100 0.293900
vt 0.579900 0.291200
vt 0.580600 0.181700
vt 0.937900 0.184300
vt 0.891600 0.290700
vt 0.617500 0.289400
vt 0.617800 0.205300
vt 0.891900 0.206600
vt 0.981700 0.239800
vt 0.756800 0.242000
vt 0.981400 0.173200
vt 0.902200 0.183400
vt 0.901600 0.198000
vt 0.576600 0.147100
vt 0.910500 0.143800
vt 0.911200 0.222200
vt 0.577400 0.225600
vt 0.563800 0.157800
vt 0.563900 0.142000
vt 0.299400 0.138800
vt 0.358600 0.138800
vt 0.358600 0.552500
vt 0.299400 0.552500
vt 0.065400 0.972100
vt 0.043800 0.972100
vt 0.043800 0.542800
vt 0.065400 0.542800
vt 0.296300 0.552500
vt 0.355500 0.552500
vt 0.355500 0.966200
vt 0.296300 0.966200
vt 0.091400 0.544000
vt 0.113000 0.544000
vt 0.113000 0.973400
vt 0.091400 0.973400
vt 0.236800 0.645200
vt 0.236800 0.788300
vt 0.195100 0.788300
vt 0.195100 0.645200
vt 0.278500 0.645200
vt 0.278500 0.788300
vt 0.211600 0.127700
vt 0.283500 0.127700
vt 0.283500 0.921900
vt 0.211600 0.921900
vt 0.380500 0.115500
vt 0.427700 0.115500
vt 0.427700 0.909700
vt 0.380500 0.909700
vt 0.379700 0.909200
vt 0.307900 0.909200
vt 0.307900 0.115000
vt 0.379700 0.115000
vt 0.474900 0.115500
vt 0.474900 0.909700
vt 0.173500 0.482900
vt 0.173500 0.519100
vt 0.151600 0.519100
vt 0.151600 0.482900
vt 0.430700 0.181400
vt 0.452600 0.181400
vt 0.452600 0.217700
vt 0.289400 0.540500
vt 0.335900 0.540500
vt 0.335900 0.797200
vt 0.289400 0.797200
vt 0.344700 0.704500
vt 0.366600 0.704500
vt 0.366600 0.889100
vt 0.344700 0.889100
vt 0.338900 0.745600
vt 0.305500 0.745600
vt 0.305500 0.561000
vt 0.338900 0.561000
vt 0.341200 0.376400
vt 0.363100 0.376400
vt 0.363100 0.561000
vt 0.341200 0.561000
vt 0.496500 0.181400
vt 0.496500 0.217700
vt 0.474500 0.217700
vt 0.474500 0.181400
vt 0.289400 0.283800
vt 0.335900 0.283800
vt 0.344700 0.520000
vt 0.366600 0.520000
vt 0.338900 0.930100
vt 0.305500 0.930100
vt 0.341200 0.191900
vt 0.363100 0.191900
vt 0.355400 0.506900
vt 0.355400 0.286400
vt 0.376100 0.286400
vt 0.376100 0.506900
vt 0.377500 0.636900
vt 0.377500 0.465900
vt 0.396500 0.465900
vt 0.396500 0.636900
vt 0.377500 0.294900
vt 0.397300 0.294900
vt 0.397300 0.465900
vt 0.456200 0.217700
vt 0.461500 0.219600
vt 0.461500 0.225700
vt 0.456200 0.227500
vt 0.452900 0.222600
vt 0.297200 0.218600
vt 0.297200 0.439100
vt 0.272800 0.439100
vt 0.272800 0.218600
vt 0.334700 0.506900
vt 0.334700 0.286400
vt 0.484600 0.209400
vt 0.484600 0.235900
vt 0.461400 0.244100
vt 0.447100 0.222600
vt 0.461400 0.201200
vt 0.307000 0.907100
vt 0.307000 0.562800
vt 0.343600 0.562800
vt 0.343600 0.907100
vt 0.260700 0.564200
vt 0.260700 0.908500
vt 0.218500 0.908500
vt 0.218500 0.564200
vt 0.416800 0.562800
vt 0.416800 0.907100
vt 0.380200 0.907100
vt 0.380200 0.562800
vt 0.143400 0.463400
vt 0.143400 0.543500
vt 0.079500 0.583600
vt 0.015600 0.543500
vt 0.015600 0.463400
vt 0.079500 0.423300
vt 0.465100 0.573100
vt 0.465100 0.917300
vt 0.422900 0.917300
vt 0.422900 0.573100
vt 0.270400 0.907100
vt 0.270400 0.562800
vt 0.271300 0.463400
vt 0.271300 0.543500
vt 0.207400 0.583600
vt 0.207400 0.423300
vt 0.636500 0.675900
vt 0.636500 0.490000
vt 0.675100 0.490000
vt 0.675100 0.675900
vt 0.906700 0.675900
vt 0.906700 0.490000
vt 0.945300 0.490000
vt 0.945300 0.675900
vt 0.713700 0.675900
vt 0.713700 0.490000
vt 0.752300 0.490000
vt 0.752300 0.675900
vt 0.520700 0.675900
vt 0.520700 0.490000
vt 0.559300 0.490000
vt 0.559300 0.675900
vt 0.790900 0.675900
vt 0.790900 0.490000
vt 0.829500 0.490000
vt 0.829500 0.675900
vt 0.597900 0.675900
vt 0.597900 0.490000
vt 0.868100 0.675900
vt 0.868100 0.490000
vt 0.983900 0.490000
vt 0.983900 0.675900
vt 0.624900 0.636000
vt 0.663500 0.646800
vt 0.663500 0.690600
vt 0.624900 0.701400
vt 0.858300 0.636000
vt 0.819700 0.646800
vt 0.798800 0.608900
vt 0.827000 0.579300
vt 0.656200 0.758000
vt 0.684400 0.728500
vt 0.720700 0.750400
vt 0.710300 0.790700
vt 0.772900 0.546600
vt 0.762500 0.587000
vt 0.720700 0.587000
vt 0.710300 0.546600
vt 0.772900 0.790700
vt 0.762500 0.750400
vt 0.798800 0.728500
vt 0.827000 0.758000
vt 0.656200 0.579300
vt 0.684400 0.608900
vt 0.858300 0.701400
vt 0.819700 0.690600
vt 0.723300 0.693800
vt 0.723300 0.535300
vt 0.755200 0.535300
vt 0.755200 0.693800
vt 0.563900 0.693800
vt 0.563900 0.535300
vt 0.595800 0.535300
vt 0.595800 0.693800
vt 0.787100 0.693800
vt 0.787100 0.535300
vt 0.819000 0.535300
vt 0.819000 0.693800
vt 0.627700 0.693800
vt 0.627700 0.535300
vt 0.659500 0.535300
vt 0.659500 0.693800
vt 0.850800 0.693800
vt 0.850800 0.535300
vt 0.882700 0.535300
vt 0.882700 0.693800
vt 0.691400 0.693800
vt 0.691400 0.535300
vt 0.914600 0.693800
vt 0.914600 0.535300
vt 0.946500 0.535300
vt 0.946500 0.693800
vt 0.767500 0.585300
vt 0.818300 0.616000
vt 0.847700 0.669200
vt 0.847700 0.730600
vt 0.818300 0.783700
vt 0.767500 0.814400
vt 0.708800 0.814400
vt 0.658000 0.783700
vt 0.628600 0.730600
vt 0.628600 0.669200
vt 0.658000 0.616000
vt 0.708800 0.585300
vt 0.650500 0.688900
vt 0.622700 0.638400
vt 0.622700 0.580100
vt 0.650500 0.529500
vt 0.698800 0.500400
vt 0.754600 0.500400
vt 0.802900 0.529500
vt 0.830700 0.580100
vt 0.830700 0.638400
vt 0.802900 0.688900
vt 0.754600 0.718000
vt 0.698800 0.718000
s 0
usemtl Material.003
f 12/1/1 14/2/1 13/3/1 11/4/1
f 14/5/2 18/6/2 17/7/2 13/8/2
f 18/9/3 16/10/3 15/11/3 17/12/3
f 16/13/4 12/14/4 11/15/4 15/16/4
f 11/17/5 13/16/5 17/15/5 15/18/5
f 16/19/6 18/17/6 14/18/6 12/20/6
f 20/21/7 22/22/7 21/23/7 19/24/7
f 22/25/8 26/26/8 25/27/8 21/28/8
f 26/21/9 24/29/9 23/30/9 25/22/9
f 24/31/10 20/32/10 19/33/10 23/34/10
f 19/31/1 21/35/1 25/36/1 23/32/1
f 24/37/3 26/38/3 22/39/3 20/40/3
f 40/41/1 42/42/1 41/43/1 39/44/1
f 42/45/11 46/46/11 45/47/11 41/48/11
f 46/49/3 44/50/3 43/51/3 45/52/3
f 44/53/5 40/54/5 39/55/5 43/56/5
f 39/57/12 41/58/12 45/59/12 43/60/12
f 44/58/13 46/57/13 42/61/13 40/62/13
f 48/63/1 50/64/1 49/65/1 47/66/1
f 50/67/14 54/68/14 53/69/14 49/70/14
f 54/71/3 52/72/3 51/73/3 53/74/3
f 52/75/15 48/76/15 47/77/15 51/78/15
f 47/79/16 49/80/16 53/81/16 51/82/16
f 52/83/17 54/84/17 50/85/17 48/86/17
f 70/87/18 67/88/18 57/89/18 55/90/18
f 67/91/19 68/92/19 61/93/19 57/94/19
f 68/95/20 69/96/20 59/97/20 61/98/20
f 69/99/5 70/100/5 55/101/5 59/102/5
f 55/103/21 57/104/21 61/105/21 59/106/21
f 60/107/22 62/108/22 58/109/22 56/110/22
f 74/111/5 71/112/5 63/113/5 66/114/5
f 73/115/23 74/116/23 66/117/23 65/118/23
f 72/119/11 73/120/11 65/121/11 64/122/11
f 71/123/24 72/124/24 64/125/24 63/126/24
f 66/127/25 63/128/25 70/100/25 69/99/25
f 65/129/26 66/130/26 69/131/26 68/132/26
f 64/122/6 65/121/6 68/92/6 67/91/6
f 63/133/27 64/134/27 67/135/27 70/136/27
f 56/137/28 58/138/28 72/124/28 71/139/28
f 58/140/29 62/141/29 73/120/29 72/119/29
f 62/142/30 60/143/30 74/144/30 73/145/30
f 60/146/31 56/147/31 71/112/31 74/111/31
f 76/148/1 78/149/1 77/150/1 75/151/1
f 78/152/8 82/153/8 81/154/8 77/155/8
f 82/156/3 80/157/3 79/158/3 81/159/3
f 80/160/10 76/161/10 75/162/10 79/163/10
f 75/164/25 77/165/25 81/166/25 79/167/25
f 80/165/11 82/164/11 78/168/11 76/169/11
f 84/170/6 86/171/6 85/172/6 83/173/6
f 86/174/32 90/175/32 89/176/32 85/177/32
f 90/178/5 88/179/5 87/180/5 89/181/5
f 88/175/33 84/182/33 83/183/33 87/176/33
f 83/184/1 85/185/1 89/186/1 87/187/1
f 88/30/3 90/188/3 86/189/3 84/190/3
f 179/191/34 180/192/34 93/193/34 91/194/34
f 180/195/8 181/196/8 97/197/8 93/198/8
f 181/199/35 182/200/35 95/201/35 97/202/35
f 182/203/33 179/204/33 91/205/33 95/206/33
f 91/207/1 93/208/1 97/209/1 95/210/1
f 96/190/3 98/189/3 94/210/3 92/209/3
f 148/211/6 150/212/6 149/193/6 147/194/6
f 150/213/36 154/214/36 153/197/36 149/198/36
f 154/215/25 152/216/25 151/201/25 153/202/25
f 152/217/37 148/218/37 147/205/37 151/206/37
f 147/207/38 149/208/38 153/209/38 151/210/38
f 152/190/39 154/189/39 150/210/39 148/209/39
f 156/211/11 158/212/11 157/193/11 155/194/11
f 158/213/40 162/214/40 161/197/40 157/198/40
f 162/215/5 160/216/5 159/201/5 161/202/5
f 160/217/41 156/218/41 155/205/41 159/206/41
f 155/207/42 157/208/42 161/209/42 159/210/42
f 160/190/43 162/189/43 158/210/43 156/209/43
f 164/211/9 166/212/9 165/193/9 163/194/9
f 166/213/44 170/214/44 169/197/44 165/198/44
f 170/215/7 168/216/7 167/201/7 169/202/7
f 168/217/45 164/218/45 163/205/45 167/206/45
f 163/207/46 165/208/46 169/209/46 167/210/46
f 168/190/47 170/189/47 166/210/47 164/209/47
f 172/211/5 174/212/5 173/193/5 171/194/5
f 174/213/48 178/214/48 177/197/48 173/198/48
f 178/215/11 176/216/11 175/201/11 177/202/11
f 176/217/49 172/218/49 171/205/49 175/206/49
f 171/207/50 173/208/50 177/209/50 175/210/50
f 176/190/51 178/189/51 174/210/51 172/209/51
f 96/217/33 92/218/33 179/204/33 182/203/33
f 98/215/52 96/216/52 182/200/52 181/199/52
f 94/213/8 98/214/8 181/196/8 180/195/8
f 92/211/53 94/212/53 180/192/53 179/191/53
f 184/148/1 186/149/1 185/150/1 183/151/1
f 186/152/8 190/153/8 189/154/8 185/155/8
f 190/156/3 188/157/3 187/158/3 189/159/3
f 188/160/10 184/161/10 183/162/10 187/163/10
f 183/164/25 185/165/25 189/166/25 187/167/25
f 188/165/11 190/164/11 186/168/11 184/169/11
s 1
f 1/219/54 2/220/55 4/221/56 3/222/57
f 3/223/57 4/224/56 6/225/58 5/226/59
f 5/224/59 6/227/58 8/228/60 7/229/61
f 4/230/56 2/231/55 10/232/62 8/233/60 6/234/58
f 7/235/61 8/236/60 10/237/62 9/238/63
f 9/239/63 10/240/62 2/220/55 1/219/54
f 1/241/54 3/242/57 5/243/59 7/244/61 9/245/63
f 27/246/64 28/247/65 30/248/66 29/249/67
f 29/250/67 30/251/66 32/252/68 31/253/69
f 31/254/69 32/255/68 34/256/70 33/257/71
f 33/257/71 34/256/70 36/249/72 35/248/73
f 30/258/66 28/259/65 38/260/74 36/261/72 34/262/70 32/263/68
f 35/264/73 36/265/72 38/266/74 37/267/75
f 37/268/75 38/269/74 28/247/65 27/246/64
f 27/270/64 29/271/67 31/272/69 33/259/71 35/258/73 37/273/75
f 104/274/76 116/275/77 115/276/78 103/277/79
f 109/278/80 121/279/81 120/280/82 108/281/83
f 102/282/84 114/283/85 113/284/86 101/285/87
f 107/286/88 119/287/89 118/288/90 106/289/91
f 100/290/92 112/291/93 111/292/94 99/293/95
f 105/294/96 117/295/97 116/275/77 104/274/76
f 110/296/98 122/297/99 121/279/81 109/278/80
f 103/277/79 115/276/78 114/283/85 102/282/84
f 108/281/83 120/280/82 119/298/89 107/299/88
f 101/285/87 113/284/86 112/291/93 100/290/92
f 106/289/91 118/288/90 117/295/97 105/294/96
f 99/293/95 111/292/94 122/297/99 110/296/98
f 116/300/77 128/301/100 127/302/101 115/303/78
f 121/304/81 133/305/102 132/306/103 120/307/82
f 114/308/85 126/309/104 125/310/105 113/311/86
f 119/312/89 131/313/106 130/314/107 118/315/90
f 112/316/93 124/317/108 123/318/109 111/319/94
f 117/320/97 129/321/110 128/301/100 116/300/77
f 122/322/99 134/323/111 133/305/102 121/304/81
f 115/303/78 127/302/101 126/309/104 114/308/85
f 120/307/82 132/306/103 131/313/106 119/312/89
f 113/311/86 125/310/105 124/317/108 112/316/93
f 118/315/90 130/314/107 129/321/110 117/320/97
f 111/319/94 123/318/109 134/323/111 122/322/99
f 126/324/104 138/325/82 137/326/112 125/327/105
f 131/328/106 143/329/113 142/330/93 130/331/107
f 124/332/108 136/333/114 135/334/97 123/335/109
f 129/336/110 141/337/94 140/338/115 128/339/100
f 134/340/111 146/341/77 145/342/116 133/343/102
f 127/344/101 139/345/117 138/325/82 126/324/104
f 132/346/103 144/347/118 143/348/113 131/349/106
f 125/327/105 137/326/112 136/333/114 124/332/108
f 130/331/107 142/330/93 141/337/94 129/336/110
f 123/335/109 135/334/97 146/341/77 134/340/111
f 128/339/100 140/338/115 139/345/117 127/344/101
f 133/343/102 145/342/116 144/347/118 132/346/103
f 100/350/92 99/351/95 110/352/98 109/353/80 108/354/83 107/355/88 106/356/91 105/357/96 104/358/76 103/359/79 102/360/84 101/361/87
f 136/362/114 137/363/112 138/364/82 139/365/117 140/366/115 141/367/94 142/368/93 143/369/113 144/370/118 145/371/116 146/372/77 135/373/97
