# Blender 4.2.3 LTS
# www.blender.org
mtllib casa4.mtl
o Cube.003_Cube.004
v -0.309329 1.522140 8.794723
v -0.309329 2.900250 8.794723
v -0.313385 1.522140 8.416925
v -0.313385 2.900250 8.416925
v 0.641856 1.522140 8.784486
v 0.641856 2.900250 8.784486
v 0.637799 1.522140 8.406673
v 0.637799 2.900250 8.406672
v -0.167706 1.683086 8.806172
v -0.167706 2.739304 8.806172
v 0.500520 2.739304 8.798963
v 0.500520 1.683086 8.798963
v -0.169428 1.683086 8.646462
v -0.169428 2.739304 8.646462
v 0.498798 2.739304 8.639253
v 0.498798 1.683086 8.639253
v 3.701168 1.683086 -2.510972
v 3.701168 2.739303 -2.510972
v 3.766593 2.739303 -1.845914
v 3.766593 1.683086 -1.845914
v 3.860115 1.683086 -2.526637
v 3.860115 2.739303 -2.526637
v 3.925542 2.739303 -1.861587
v 3.925542 1.683086 -1.861587
v 3.457369 2.900250 -2.629208
v 3.457369 1.522140 -2.629208
v 3.833353 2.900250 -2.666185
v 3.833353 1.522140 -2.666185
v 3.550477 2.900250 -1.682509
v 3.550477 1.522140 -1.682509
v 3.926461 2.900250 -1.719486
v 3.926461 1.522140 -1.719486
v 4.344965 2.833168 9.233928
v 4.361427 3.113182 9.233763
v -3.892605 2.966864 9.322652
v -3.970732 3.244660 9.323473
v 4.179948 2.833168 -6.093588
v 4.196409 3.113183 -6.093754
v -4.057621 2.966864 -6.004918
v -4.135750 3.244660 -6.004052
v 0.171977 7.957358 9.278883
v 0.171977 7.579427 9.278883
v 0.006960 7.957358 -6.048687
v 0.006960 7.579427 -6.048687
v 3.784235 0.035154 8.595186
v 3.784235 3.472690 8.595186
v -3.473705 0.035154 8.673331
v -3.473705 3.472690 8.673331
v 3.633110 0.035154 -5.442883
v 3.633110 3.472690 -5.442883
v -3.624831 0.035154 -5.364737
v -3.624831 3.472690 -5.364737
v 0.155287 7.662673 8.634237
v 0.155286 0.035154 8.634237
v 0.004161 7.662673 -5.403831
v 0.004161 0.035154 -5.403830
v -3.497628 -0.102337 -5.243353
v -3.497628 3.757054 -5.243354
v -3.740158 -0.102337 -5.240730
v -3.740158 3.564549 -5.240731
v -3.500742 -0.102337 -5.533049
v -3.500742 3.757054 -5.533049
v -3.743271 -0.102337 -5.530426
v -3.743271 3.564549 -5.530426
v -3.346872 -0.102337 8.761577
v -3.346872 3.757054 8.761577
v -3.589402 -0.102337 8.764208
v -3.589402 3.564549 8.764208
v -3.349986 -0.102337 8.471843
v -3.349986 3.757054 8.471843
v -3.592516 -0.102337 8.474466
v -3.592516 3.564549 8.474466
v -3.667178 3.564549 1.540723
v -3.667177 -0.102337 1.540716
v -3.424647 3.757053 1.538139
v -3.424647 -0.102337 1.538139
v -3.664020 3.564549 1.830454
v -3.664020 -0.102337 1.830455
v -3.421490 3.757053 1.827839
v -3.421490 -0.102337 1.827839
v 3.562502 3.757053 1.432116
v 3.562502 -0.102337 1.432117
v 3.805031 3.564549 1.429501
v 3.805031 -0.102337 1.429501
v 3.565535 3.757053 1.713028
v 3.565535 -0.102337 1.713028
v 3.808065 3.564549 1.710451
v 3.808065 -0.102337 1.710451
v 3.732911 -0.102337 -5.270801
v 3.732911 3.564549 -5.270801
v 3.490382 -0.102337 -5.268223
v 3.490382 3.757054 -5.268223
v 3.729879 -0.102337 -5.551758
v 3.729879 3.564549 -5.551758
v 3.487350 -0.102337 -5.549135
v 3.487350 3.757054 -5.549135
v 3.619512 3.538151 -5.263563
v -3.589684 3.538151 -5.185948
v 3.619512 3.295623 -5.263563
v -3.617489 3.295623 -5.185665
v 3.616602 3.538152 -5.533644
v -3.592592 3.538152 -5.456028
v 3.616602 3.295623 -5.533644
v -3.620398 3.295623 -5.455745
v -3.470665 3.295623 8.452000
v 3.766335 3.295623 8.374110
v -3.442860 3.538151 8.451716
v 3.766335 3.538151 8.374110
v -3.467756 3.295623 8.722126
v 3.769245 3.295623 8.644182
v -3.439950 3.538151 8.721790
v 3.769245 3.538151 8.644182
v 0.121005 7.983116 -6.557404
v 0.296432 7.983116 9.735000
v 0.121005 7.628087 -6.557404
v 0.297086 7.628087 9.797865
v -0.133764 7.983116 -6.554656
v 0.041662 7.983116 9.737747
v -0.133764 7.628087 -6.554656
v 0.042318 7.628087 9.800613
v 1.029989 0.062320 -5.249473
v 1.029989 3.265642 -5.249474
v -1.097168 0.062320 -5.226569
v -1.097168 3.265642 -5.226569
v 1.025931 0.062320 -5.622887
v 1.025932 3.265643 -5.622887
v -1.101227 0.062320 -5.599975
v -1.101227 3.265643 -5.599975
v -0.924701 3.059619 -5.629584
v -0.924701 0.268386 -5.629584
v 0.848876 3.059619 -5.648675
v 0.848876 0.268386 -5.648675
v -0.922531 3.059619 -5.424789
v -0.922531 0.268386 -5.424789
v 0.851088 3.059619 -5.443891
v 0.851088 0.268386 -5.443890
v 0.673137 1.821260 -5.371718
v 0.695057 1.913333 -5.371924
v 0.581064 1.843138 -5.370741
v 0.602983 1.935211 -5.370939
v 0.669182 1.825567 -5.494206
v 0.689396 1.910646 -5.494411
v 0.584102 1.845824 -5.493259
v 0.604317 1.930903 -5.493511
v 0.606123 1.921649 -5.530819
v 0.589422 1.853117 -5.566225
v 0.682887 1.903354 -5.531639
v 0.666186 1.834864 -5.567045
v 0.569200 1.465421 -5.548064
v 0.510007 1.479494 -5.547415
v 0.567133 1.471903 -5.598735
v 0.513740 1.484569 -5.598158
v 3.637695 3.757054 8.416697
v 3.637739 -0.102337 8.416695
v 3.880225 3.564549 8.414120
v 3.880225 -0.102337 8.414120
v 3.640729 3.757054 8.697645
v 3.640729 -0.102337 8.697645
v 3.883258 3.564549 8.695030
v 3.883258 -0.102337 8.695030
v -4.053620 3.314046 -6.087475
v -3.887374 3.314046 9.356688
v -4.053620 2.957311 -6.087475
v -3.886717 2.957311 9.416260
v -4.209833 3.314046 -6.085799
v -4.043545 3.314046 9.358369
v -4.209833 2.957311 -6.085799
v -4.042889 2.957311 9.417941
v 1.966535 5.692250 9.259550
v 1.893575 5.589431 -6.129733
v -2.064458 5.459658 -6.026388
v -1.864635 5.401617 9.479119
v 4.304000 3.184487 -6.177424
v 4.470245 3.184487 9.266693
v 4.304000 2.797729 -6.177424
v 4.470901 2.797729 9.326281
v 4.147785 3.184487 -6.175740
v 4.314075 3.184487 9.268374
v 4.147785 2.797729 -6.175740
v 4.314687 2.797729 9.327957
v 1.332829 6.256032 -6.145463
v 1.499074 6.256032 9.298707
v 1.332829 6.024934 -6.145463
v 1.499730 6.024934 9.358279
v 1.144247 6.256032 -6.143409
v 1.310491 6.256032 9.300708
v 1.144247 6.024934 -6.143409
v 1.311148 6.024934 9.360287
v -1.078013 6.256032 -6.119476
v -0.911725 6.256032 9.324637
v -1.078013 6.024934 -6.119476
v -0.911111 6.024934 9.384212
v -1.266596 6.256032 -6.117468
v -1.100308 6.256032 9.326647
v -1.266596 6.024934 -6.117468
v -1.099650 6.024934 9.386265
v -2.410029 4.746871 -6.105135
v -2.243784 4.746871 9.338983
v -2.410029 4.515770 -6.105135
v -2.243127 4.515771 9.398555
v -2.598611 4.746871 -6.103127
v -2.432365 4.746871 9.340983
v -2.598611 4.515770 -6.103127
v -2.431708 4.515771 9.400609
v 2.718365 4.692625 -6.160375
v 2.884654 4.692667 9.283747
v 2.718365 4.515770 -6.160375
v 2.885311 4.515770 9.343365
v 2.529783 4.746871 -6.158328
v 2.696071 4.746871 9.285794
v 2.529783 4.515770 -6.158328
v 2.696728 4.515770 9.345366
v 2.550127 4.942019 -5.672706
v -2.533405 4.942019 -5.617954
v 2.550127 4.719535 -5.672706
v -2.553022 4.719535 -5.617759
v 2.547462 4.942019 -5.920479
v -2.536111 4.942019 -5.865733
v 2.547462 4.719535 -5.920479
v -2.555728 4.719535 -5.865530
v -1.247083 6.442183 -5.975792
v -1.093001 6.329427 -5.977432
v -3.235109 3.884267 -5.897511
v -3.360703 4.057069 -5.896163
v 2.880137 4.417003 -5.901992
v 2.910074 4.635650 -5.902282
v 1.889657 5.423154 -6.139630
v -1.842246 5.272186 9.478859
v -0.274809 5.465373 -5.451549
v -0.274810 6.249465 -5.451541
v 0.242789 6.249465 -5.457116
v 0.242789 5.465373 -5.457116
v -0.276162 5.465373 -5.575257
v -0.276162 6.249465 -5.575257
v 0.241436 6.249465 -5.580832
v 0.241436 5.465373 -5.580832
v -0.382485 6.368917 -5.271409
v -0.382485 5.345921 -5.271409
v -0.385640 6.368917 -5.564049
v -0.385640 5.345921 -5.564049
v 0.354317 6.368917 -5.279320
v 0.354317 5.345921 -5.279320
v 0.351161 6.368917 -5.571960
v 0.351161 5.345921 -5.571960
vn -0.9999 -0.0000 0.0107
vn -0.0108 -0.0000 -0.9999
vn 0.9999 -0.0000 -0.0107
vn 0.0108 0.0809 0.9967
vn -0.0000 -1.0000 -0.0000
vn -0.0000 1.0000 -0.0000
vn 0.0107 -0.0803 0.9967
vn -0.0806 -0.0000 0.9967
vn 0.1019 -0.0000 0.9948
vn 0.0108 -0.0000 0.9999
vn 0.9999 -0.0000 -0.0108
vn -0.9999 -0.0000 0.0108
vn -0.0977 -0.0000 -0.9952
vn 0.9920 -0.0804 -0.0976
vn 1.0000 -0.0000 -0.0065
vn 0.9821 -0.0000 -0.1883
vn -0.0979 -0.0000 -0.9952
vn 0.9952 -0.0000 -0.0979
vn 0.0978 -0.0000 0.9952
vn 0.0979 -0.0000 0.9952
vn 0.9920 0.0804 -0.0976
vn -0.9952 -0.0000 0.0979
vn 0.0940 0.0036 0.9956
vn -0.9626 -0.2708 0.0104
vn -0.0236 0.0183 -0.9996
vn 0.9982 -0.0587 -0.0107
vn 0.7502 -0.6612 -0.0082
vn -0.7757 0.6310 0.0103
vn 0.7325 0.6807 -0.0050
vn -0.7509 -0.6603 0.0071
vn 0.0865 0.0440 -0.9953
vn 0.0107 -0.0000 0.9999
vn -0.7558 0.6547 0.0081
vn 0.7558 0.6547 -0.0081
vn -0.6216 0.7833 0.0067
vn -0.9999 -0.0000 0.0109
vn -0.6216 0.7833 0.0068
vn 0.9999 -0.0000 -0.0109
vn -0.0106 -0.0000 -0.9999
vn 0.0106 -0.0000 0.9999
vn 0.6217 0.7833 -0.0067
vn 0.6216 0.7833 -0.0067
vn -0.9934 0.1139 0.0107
vn 0.0108 0.0001 0.9999
vn 0.0106 0.1744 0.9846
vn -0.0107 0.1332 -0.9910
vn 0.1441 -0.0000 -0.9896
vn -0.0107 -0.1332 -0.9910
vn -0.1654 -0.0000 -0.9862
vn 0.9999 -0.0000 -0.0106
vn -0.9727 0.2313 -0.0189
vn 0.2234 0.9484 -0.2251
vn 0.9720 -0.2317 -0.0396
vn -0.2318 -0.9724 -0.0266
vn 0.2309 0.9724 -0.0318
vn 0.0949 0.4387 -0.8936
vn 0.9729 -0.2137 -0.0879
vn -0.9774 0.2052 -0.0510
vn -0.9666 0.2476 -0.0669
vn -0.2308 -0.9663 -0.1139
vn 0.0095 0.0844 -0.9964
vn -0.0227 -0.1417 0.9897
vn 0.9638 -0.2568 -0.0723
vn 0.0106 0.1647 0.9863
vn 0.7828 0.6222 -0.0081
vn -0.7231 0.6907 0.0095
vn 0.0106 0.1523 0.9883
vn -0.0109 -0.0000 -0.9999
vn 0.0103 0.2496 0.9683
vn 0.9999 -0.0001 -0.0108
vn -0.0111 -0.0000 -0.9999
vn 0.0104 0.2497 0.9683
vn -0.0112 -0.0000 -0.9999
vn 0.2763 0.9611 -0.0030
vn 0.0506 0.2802 0.9586
vn -0.9961 0.0878 0.0109
vn -0.0475 -0.0116 -0.9988
vn 0.1428 -0.1589 -0.9769
vn -0.1330 0.0115 -0.9911
vn 0.2295 0.0041 -0.9733
vn -0.0570 -0.0167 0.9982
vn -0.0107 -0.0838 -0.9964
vn 0.0806 -0.0000 -0.9967
vn -0.1019 -0.0000 -0.9948
vn -0.0107 0.0838 -0.9964
vt 0.226300 0.318800
vt 0.226400 0.307300
vt 0.346700 0.308600
vt 0.346600 0.320100
vt 0.736100 0.269000
vt 0.766900 0.269000
vt 0.766900 0.341200
vt 0.736100 0.341200
vt 0.358000 0.292100
vt 0.357900 0.315000
vt 0.215100 0.312400
vt 0.215300 0.289400
vt 0.654800 0.257700
vt 0.537900 0.254900
vt 0.556100 0.229900
vt 0.638300 0.231900
vt 0.145900 0.193000
vt 0.146000 0.181500
vt 0.199800 0.182100
vt 0.199700 0.193600
vt 0.238400 0.288600
vt 0.238200 0.308500
vt 0.145200 0.307500
vt 0.145400 0.287600
vt 0.395900 0.300700
vt 0.290600 0.298900
vt 0.290800 0.285400
vt 0.396100 0.287200
vt 0.368400 0.313800
vt 0.251400 0.310800
vt 0.269400 0.287700
vt 0.351500 0.289800
vt 0.585000 0.323500
vt 0.322100 0.323700
vt 0.352800 0.305600
vt 0.554300 0.305400
vt 0.322000 0.201600
vt 0.584900 0.201400
vt 0.554200 0.219600
vt 0.352700 0.219800
vt 0.622200 0.064100
vt 0.621900 0.192200
vt 0.320900 0.191400
vt 0.321200 0.063400
vt 0.395700 0.314300
vt 0.290400 0.312400
vt 0.391700 0.302700
vt 0.249700 0.302700
vt 0.249700 0.290100
vt 0.391700 0.290100
vt 0.391700 0.315400
vt 0.249700 0.315300
vt 0.429300 0.986400
vt 0.309400 0.769400
vt 0.308700 0.731000
vt 0.429600 0.949900
vt 0.077800 0.482200
vt 0.940000 0.493200
vt 0.939600 0.528200
vt 0.077400 0.517200
vt 0.486500 0.985800
vt 0.371400 0.774200
vt 0.371600 0.736300
vt 0.487000 0.948400
vt 0.041300 0.480600
vt 0.952500 0.487500
vt 0.952300 0.521700
vt 0.041000 0.514900
vt 0.852500 0.495600
vt 0.847500 0.741700
vt 0.842700 0.975700
vt 0.116400 0.971400
vt 0.118100 0.887200
vt 0.123400 0.625700
vt 0.126200 0.491300
vt 0.032900 0.985800
vt 0.035600 0.842800
vt 0.037400 0.749600
vt 0.937700 0.753500
vt 0.933300 0.985900
vt 0.933300 0.531200
vt 0.933800 0.651200
vt 0.934300 0.763000
vt 0.032800 0.777300
vt 0.031700 0.535000
vt 0.913300 0.517300
vt 0.909200 0.941600
vt 0.125600 0.933700
vt 0.127600 0.728100
vt 0.128600 0.624800
vt 0.129700 0.509400
vt 0.737200 0.555000
vt 0.697100 0.623900
vt 0.693700 0.593100
vt 0.737700 0.517600
vt 0.671400 0.564000
vt 0.540700 0.792100
vt 0.671800 0.527400
vt 0.861600 0.425900
vt 0.737100 0.196600
vt 0.735900 0.007900
vt 0.858900 0.007000
vt 0.149800 0.036700
vt 0.754000 0.035500
vt 0.756100 0.240800
vt 0.151800 0.242000
vt 0.245900 0.465900
vt 0.115600 0.213100
vt 0.115600 0.009500
vt 0.248200 0.009500
vt 0.629700 0.257900
vt 0.183000 0.256300
vt 0.184400 0.013800
vt 0.631200 0.015300
vt 0.682300 0.243100
vt 0.682300 0.423000
vt 0.339500 0.423000
vt 0.339500 0.243100
vt 0.235600 0.000000
vt 0.234800 0.223100
vt 0.000000 0.224200
vt 0.000800 0.001000
vt 0.705300 0.581100
vt 0.706000 0.797600
vt 0.471200 0.796400
vt 0.470500 0.579900
vt 0.682300 0.063300
vt 0.339500 0.063300
vt 0.380900 0.213100
vt 0.380900 0.009500
vt 0.983200 0.194900
vt 0.982000 0.006100
vt 0.791300 0.292400
vt 0.761900 0.317000
vt 0.203400 0.313700
vt 0.203500 0.288900
vt 0.736900 0.304000
vt 0.736800 0.322900
vt 0.285500 0.315400
vt 0.285700 0.296400
vt 0.243700 0.309600
vt 0.217800 0.281500
vt 0.741400 0.290700
vt 0.741200 0.318300
vt 0.244900 0.255700
vt 0.244500 0.237300
vt 0.713000 0.232300
vt 0.713400 0.250600
vt 0.748400 0.398500
vt 0.748400 0.390200
vt 0.753300 0.390200
vt 0.753300 0.398500
vt 0.987000 0.000000
vt 0.986800 0.010300
vt 0.982000 0.010300
vt 0.982100 0.000000
vt 0.758000 0.390200
vt 0.758000 0.398500
vt 0.296200 0.302700
vt 0.296200 0.283000
vt 0.745000 0.282400
vt 0.745000 0.302100
vt 0.336100 0.211400
vt 0.320200 0.193500
vt 0.638200 0.192400
vt 0.638300 0.210400
vt 0.987800 0.565500
vt 0.987900 0.575400
vt 0.983200 0.575400
vt 0.983100 0.565500
vt 0.377400 0.306200
vt 0.377500 0.287400
vt 0.592600 0.282800
vt 0.592500 0.301600
vt 0.320600 0.319000
vt 0.336400 0.301000
vt 0.638600 0.300000
vt 0.638600 0.317900
vt 0.087400 0.314300
vt 0.086400 0.295600
vt 0.433000 0.302900
vt 0.432700 0.321500
vt 0.071600 0.303700
vt 0.071500 0.289000
vt 0.420900 0.297100
vt 0.421000 0.311800
vt 0.095800 0.316300
vt 0.097300 0.296600
vt 0.462300 0.298700
vt 0.462200 0.318300
vt 0.058800 0.309100
vt 0.059500 0.288600
vt 0.467100 0.294700
vt 0.466400 0.315200
vt 0.787600 0.386100
vt 0.787600 0.398800
vt 0.783000 0.398800
vt 0.783000 0.386100
vt 0.783000 0.373400
vt 0.778500 0.386100
vt 0.778500 0.373400
vt 0.467200 0.258000
vt 0.468700 0.273200
vt 0.077900 0.275100
vt 0.077800 0.259900
vt 0.347600 0.018300
vt 0.347500 0.006600
vt 0.762500 0.005700
vt 0.762500 0.017400
vt 0.505100 0.273300
vt 0.506500 0.258100
vt 0.895900 0.256200
vt 0.895900 0.271400
vt 0.762500 0.029000
vt 0.349100 0.029900
vt 0.349100 0.018300
vt 0.473300 0.384000
vt 0.505100 0.382100
vt 0.506400 0.405900
vt 0.474600 0.407800
vt 0.538200 0.403900
vt 0.536900 0.380100
vt 0.532600 0.949200
vt 0.470500 0.949200
vt 0.470500 0.797600
vt 0.532600 0.797600
vt 0.502700 0.384600
vt 0.502700 0.393400
vt 0.283200 0.393100
vt 0.283200 0.384200
vt 0.296200 0.256900
vt 0.395900 0.257400
vt 0.387500 0.273000
vt 0.304400 0.272600
vt 0.484800 0.287800
vt 0.484800 0.309600
vt 0.243500 0.308700
vt 0.243500 0.286900
vt 0.418900 0.335000
vt 0.553400 0.337400
vt 0.553200 0.350000
vt 0.418700 0.347700
vt 0.687900 0.339700
vt 0.687700 0.352400
vt 0.561900 0.353100
vt 0.308000 0.355400
vt 0.307900 0.339600
vt 0.561700 0.337400
vt 0.332200 0.259000
vt 0.565100 0.261300
vt 0.550000 0.271800
vt 0.347100 0.269800
vt 0.586100 0.258000
vt 0.406400 0.261100
vt 0.420900 0.232600
vt 0.570800 0.230100
vt 0.571100 0.318800
vt 0.338200 0.317000
vt 0.353300 0.308400
vt 0.556200 0.310100
vt 0.206000 0.221400
vt 0.205200 0.023300
vt 0.668700 0.021400
vt 0.669400 0.219500
vt 0.450300 0.256500
vt 0.764100 0.258400
vt 0.764200 0.272400
vt 0.450400 0.270600
vt 0.620900 0.125400
vt 0.367000 0.127600
vt 0.366900 0.111900
vt 0.620700 0.109700
vt 0.136600 0.268700
vt 0.136500 0.254700
vt 0.198600 0.292000
vt 0.214200 0.292000
vt 0.214200 0.317400
vt 0.198600 0.317400
vt 0.258700 0.300700
vt 0.257800 0.312100
vt 0.246100 0.311200
vt 0.246100 0.299700
vt 0.224700 0.307800
vt 0.224700 0.292600
vt 0.228000 0.293400
vt 0.228000 0.307100
vt 0.307600 0.297800
vt 0.307200 0.286400
vt 0.319900 0.285900
vt 0.319300 0.297300
vt 0.238500 0.292000
vt 0.238500 0.308400
vt 0.228000 0.307800
vt 0.228000 0.292600
vt 0.214200 0.308400
vt 0.309000 0.318200
vt 0.309400 0.304000
vt 0.318800 0.304100
vt 0.318500 0.318300
vt 0.318100 0.304100
vt 0.308700 0.301200
vt 0.247000 0.318000
vt 0.196600 0.317100
vt 0.196000 0.312400
vt 0.256500 0.315500
vt 0.242800 0.292000
vt 0.242800 0.302600
vt 0.238500 0.302100
vt 0.238500 0.292500
vt 0.369200 0.307200
vt 0.369000 0.317100
vt 0.258900 0.318800
vt 0.259300 0.303100
vt 0.309300 0.306400
vt 0.309100 0.317300
vt 0.369400 0.300300
vt 0.368500 0.305000
vt 0.218300 0.306000
vt 0.202400 0.288100
vt 0.520500 0.287000
vt 0.520500 0.304900
vt 0.935200 0.979900
vt 0.033700 0.983700
vt 0.040100 0.601700
vt 0.041500 0.528500
vt 0.941900 0.528500
vt 0.276000 0.286300
vt 0.317000 0.283800
vt 0.318700 0.314500
vt 0.277800 0.317000
vt 0.557100 0.827900
vt 0.564900 0.851000
vt 0.616000 0.763300
vt 0.313600 0.629700
vt 0.312100 0.665100
vt 0.248300 0.548000
vt 0.248800 0.510600
vt 0.193400 0.559500
vt 0.193800 0.522900
s 0
usemtl Material.005
f 2/1/1 4/2/1 3/3/1 1/4/1
f 4/5/2 8/6/2 7/7/2 3/8/2
f 8/9/3 6/10/3 5/11/3 7/12/3
f 6/13/4 2/14/4 10/15/4 11/16/4
f 1/17/5 3/18/5 7/19/5 5/20/5
f 6/21/6 8/22/6 4/23/6 2/24/6
f 11/25/5 10/26/5 14/27/5 15/28/5
f 1/29/7 5/30/7 12/31/7 9/32/7
f 2/33/8 1/34/8 9/35/8 10/36/8
f 5/37/9 6/38/9 11/39/9 12/40/9
f 15/41/10 14/42/10 13/43/10 16/44/10
f 9/45/6 12/46/6 16/26/6 13/25/6
f 10/47/11 9/48/11 13/49/11 14/50/11
f 12/51/12 11/52/12 15/48/12 16/47/12
f 23/47/13 24/48/13 20/49/13 19/50/13
f 32/29/14 28/30/14 21/31/14 24/32/14
f 27/21/6 25/22/6 29/23/6 31/24/6
f 31/33/15 32/34/15 24/35/15 23/36/15
f 24/45/6 21/46/6 17/26/6 20/25/6
f 28/37/16 27/38/16 22/39/16 21/40/16
f 25/9/17 27/10/17 28/11/17 26/12/17
f 18/41/18 19/42/18 20/43/18 17/44/18
f 21/51/19 22/52/19 18/48/19 17/47/19
f 22/25/5 23/26/5 19/27/5 18/28/5
f 31/1/20 29/2/20 30/3/20 32/4/20
f 27/13/21 31/14/21 23/15/21 22/16/21
f 32/17/5 30/18/5 26/19/5 28/20/5
f 29/5/22 25/6/22 26/7/22 30/8/22
f 41/53/23 172/54/23 228/55/23 42/56/23
f 36/57/24 40/58/24 39/59/24 35/60/24
f 43/61/25 170/62/25 227/63/25 44/64/25
f 38/65/26 34/66/26 33/67/26 37/68/26
f 42/69/27 228/70/27 35/71/27 39/72/27 223/73/27 222/74/27 44/75/27
f 43/76/28 221/77/28 171/78/28 172/79/28 41/80/28
f 38/81/29 226/82/29 170/83/29 169/84/29 34/85/29
f 33/86/30 42/87/30 44/88/30 227/89/30 225/90/30 37/91/30
f 40/92/31 224/93/31 223/94/31 39/95/31
f 34/96/32 169/97/32 41/53/32 42/56/32 33/98/32
f 53/99/10 48/100/10 47/101/10 54/102/10
f 48/103/12 52/104/12 51/105/12 47/106/12
f 55/107/2 50/108/2 49/109/2 56/110/2
f 50/111/11 46/112/11 45/113/11 49/114/11
f 54/115/5 47/116/5 51/117/5 56/118/5
f 55/119/33 52/120/33 48/121/33 53/122/33
f 50/123/34 55/124/34 53/125/34 46/126/34
f 45/127/5 54/115/5 56/118/5 49/128/5
f 52/129/2 55/107/2 56/110/2 51/130/2
f 46/131/10 53/99/10 54/102/10 45/132/10
f 58/133/10 60/134/10 59/135/10 57/136/10
f 60/137/1 64/138/1 63/139/1 59/140/1
f 64/141/2 62/142/2 61/143/2 63/144/2
f 62/145/3 58/146/3 57/147/3 61/148/3
f 57/149/5 59/150/5 63/151/5 61/152/5
f 62/153/35 64/154/35 60/155/35 58/156/35
f 70/145/3 66/146/3 65/147/3 69/148/3
f 68/137/1 72/138/1 71/139/1 67/140/1
f 65/149/5 67/150/5 71/151/5 69/152/5
f 72/141/2 70/142/2 69/143/2 71/144/2
f 70/153/35 72/154/35 68/155/35 66/156/35
f 66/133/10 68/134/10 67/135/10 65/136/10
f 80/149/5 78/150/5 74/151/5 76/152/5
f 77/137/36 73/138/36 74/139/36 78/140/36
f 79/133/10 77/134/10 78/135/10 80/136/10
f 75/153/37 73/154/37 77/155/37 79/156/37
f 75/145/38 79/146/38 80/147/38 76/148/38
f 73/141/39 75/142/39 76/143/39 74/144/39
f 88/152/5 86/151/5 82/157/5 84/158/5
f 85/159/12 81/160/12 82/161/12 86/162/12
f 87/163/40 85/164/40 86/165/40 88/166/40
f 83/167/41 81/168/41 85/169/41 87/170/41
f 83/171/11 87/172/11 88/173/11 84/174/11
f 81/175/2 83/176/2 84/177/2 82/178/2
f 90/163/40 92/164/40 91/165/40 89/166/40
f 92/159/12 96/160/12 95/161/12 91/162/12
f 96/175/2 94/176/2 93/177/2 95/178/2
f 94/171/11 90/172/11 89/173/11 93/174/11
f 89/152/5 91/151/5 95/157/5 93/158/5
f 94/167/42 96/168/42 92/169/42 90/170/42
f 98/179/10 100/180/10 99/181/10 97/182/10
f 100/183/5 104/184/5 103/185/5 99/186/5
f 104/187/2 102/188/2 101/189/2 103/190/2
f 102/191/6 98/192/6 97/193/6 101/194/6
f 97/195/11 99/196/11 103/197/11 101/198/11
f 102/199/43 104/198/43 100/200/43 98/201/43
f 112/195/11 110/196/11 106/197/11 108/198/11
f 109/183/5 105/184/5 106/185/5 110/186/5
f 111/179/44 109/180/44 110/181/44 112/182/44
f 107/199/43 105/198/43 109/200/43 111/201/43
f 107/191/6 111/192/6 112/193/6 108/194/6
f 105/187/2 107/188/2 108/189/2 106/190/2
f 114/202/11 116/203/11 115/204/11 113/205/11
f 116/206/5 120/207/5 119/208/5 115/209/5
f 120/210/12 118/211/12 117/212/12 119/213/12
f 118/209/6 114/214/6 113/215/6 117/216/6
f 113/217/2 115/218/2 119/219/2 117/220/2
f 118/221/45 120/219/45 116/218/45 114/222/45
f 122/223/10 124/224/10 123/225/10 121/226/10
f 124/227/36 128/228/36 127/229/36 123/230/36
f 128/231/46 126/232/46 131/233/46 129/234/46
f 126/235/38 122/236/38 121/237/38 125/238/38
f 121/239/5 123/240/5 127/241/5 125/242/5
f 126/240/6 128/243/6 124/244/6 122/241/6
f 132/245/6 130/246/6 134/247/6 136/248/6
f 126/249/47 125/250/47 132/251/47 131/252/47
f 125/253/48 127/254/48 130/255/48 132/256/48
f 127/257/49 128/258/49 129/259/49 130/260/49
f 133/261/2 135/262/2 136/263/2 134/264/2
f 130/265/50 129/266/50 133/267/50 134/268/50
f 129/269/5 131/270/5 135/271/5 133/272/5
f 131/268/12 132/273/12 136/274/12 135/265/12
f 138/275/32 140/276/32 139/277/32 137/278/32
f 140/279/51 144/280/51 143/281/51 139/282/51
f 144/283/52 142/284/52 147/285/52 145/286/52
f 142/287/53 138/288/53 137/289/53 141/290/53
f 137/291/54 139/292/54 143/293/54 141/294/54
f 142/284/55 144/283/55 140/295/55 138/276/55
f 145/296/56 147/297/56 148/298/56 146/299/56
f 142/287/57 141/290/57 148/300/57 147/301/57
f 143/281/58 146/302/58 152/303/58 150/304/58
f 143/281/59 144/280/59 145/305/59 146/302/59
f 149/306/60 150/307/60 152/308/60 151/309/60
f 146/299/61 148/298/61 151/310/61 152/311/61
f 141/312/62 143/313/62 150/314/62 149/315/62
f 148/300/63 141/290/63 149/316/63 151/317/63
f 160/152/5 158/151/5 154/157/5 156/158/5
f 157/159/1 153/160/1 154/161/1 158/162/1
f 159/318/10 157/319/10 158/320/10 160/321/10
f 155/167/42 153/168/42 157/169/42 159/170/42
f 155/171/11 159/172/11 160/173/11 156/174/11
f 153/175/39 155/176/39 156/177/39 154/178/39
f 162/202/11 164/203/11 163/204/11 161/205/11
f 164/206/5 168/207/5 167/208/5 163/209/5
f 168/210/12 166/211/12 165/212/12 167/213/12
f 166/209/6 162/214/6 161/215/6 165/216/6
f 161/217/2 163/218/2 167/219/2 165/220/2
f 166/221/64 168/219/64 164/218/64 162/222/64
f 174/202/11 176/203/11 175/204/11 173/205/11
f 169/84/65 170/83/65 43/322/65 41/323/65
f 172/79/66 171/78/66 224/324/66 40/325/66 36/326/66
f 176/206/5 180/207/5 179/208/5 175/209/5
f 180/210/12 178/211/12 177/212/12 179/213/12
f 178/209/6 174/214/6 173/215/6 177/216/6
f 173/217/2 175/218/2 179/219/2 177/220/2
f 178/221/67 180/219/67 176/218/67 174/222/67
f 182/202/11 184/203/11 183/204/11 181/205/11
f 184/206/5 188/207/5 187/208/5 183/209/5
f 188/210/12 186/211/12 185/212/12 187/213/12
f 186/209/6 182/214/6 181/215/6 185/216/6
f 181/217/68 183/218/68 187/219/68 185/220/68
f 186/221/69 188/219/69 184/218/69 182/222/69
f 190/202/70 192/203/70 191/204/70 189/205/70
f 192/206/5 196/207/5 195/208/5 191/209/5
f 196/210/12 194/211/12 193/212/12 195/213/12
f 194/209/6 190/214/6 189/215/6 193/216/6
f 189/327/71 191/328/71 195/329/71 193/330/71
f 194/221/72 196/219/72 192/218/72 190/222/72
f 198/202/11 200/203/11 199/204/11 197/205/11
f 200/206/5 204/207/5 203/208/5 199/209/5
f 204/210/12 202/211/12 201/212/12 203/213/12
f 202/209/6 198/214/6 197/215/6 201/216/6
f 197/217/73 199/218/73 203/219/73 201/220/73
f 202/221/72 204/219/72 200/218/72 198/222/72
f 206/202/11 208/203/11 207/204/11 205/205/11
f 208/206/5 212/207/5 211/208/5 207/209/5
f 212/210/12 210/211/12 209/212/12 211/213/12
f 210/209/74 206/214/74 205/215/74 209/216/74
f 205/217/68 207/218/68 211/219/68 209/220/68
f 210/221/75 212/219/75 208/218/75 206/222/75
f 214/179/10 216/180/10 215/181/10 213/182/10
f 216/183/5 220/184/5 219/185/5 215/186/5
f 220/187/2 218/188/2 217/189/2 219/190/2
f 218/191/6 214/192/6 213/193/6 217/194/6
f 213/195/11 215/196/11 219/197/11 217/198/11
f 218/199/76 220/198/76 216/200/76 214/201/76
f 222/331/77 221/332/77 43/61/77 44/64/77
f 223/94/78 224/93/78 171/333/78 221/332/78 222/331/78
f 225/334/79 226/335/79 38/336/79 37/337/79
f 227/63/80 170/62/80 226/335/80 225/334/80
f 228/55/81 172/54/81 36/338/81 35/339/81
f 235/47/36 236/48/36 232/49/36 231/50/36
f 244/29/82 240/30/82 233/31/82 236/32/82
f 239/21/6 237/22/6 241/23/6 243/24/6
f 243/33/83 244/34/83 236/35/83 235/36/83
f 236/45/6 233/46/6 229/26/6 232/25/6
f 240/37/84 239/38/84 234/39/84 233/40/84
f 237/9/12 239/10/12 240/11/12 238/12/12
f 230/41/2 231/42/2 232/43/2 229/44/2
f 233/51/38 234/52/38 230/48/38 229/47/38
f 234/25/5 235/26/5 231/27/5 230/28/5
f 243/1/11 241/2/11 242/3/11 244/4/11
f 239/13/85 243/14/85 235/15/85 234/16/85
f 244/17/5 242/18/5 238/19/5 240/20/5
f 241/5/32 237/6/32 238/7/32 242/8/32
